<?xml version="1.0" standalone="no"?>
<!DOCTYPE svg PUBLIC "-//W3C//DTD SVG 20010904//EN"
 "http://www.w3.org/TR/2001/REC-SVG-20010904/DTD/svg10.dtd">
<svg version="1.0" xmlns="http://www.w3.org/2000/svg"
 width="640.000000pt" height="640.000000pt" viewBox="0 0 640.000000 640.000000"
 preserveAspectRatio="xMidYMid meet">
<metadata>
Created by potrace 1.14, written by Peter Selinger 2001-2017
</metadata>
<g transform="translate(0.000000,640.000000) scale(0.100000,-0.100000)"
fill="#000000" stroke="none">
<path d="M0 3200 l0 -3200 3200 0 3200 0 0 3200 0 3200 -3200 0 -3200 0 0
-3200z m3375 1753 c245 -671 278 -762 299 -818 13 -33 42 -113 66 -177 l42
-118 752 -2 751 -3 -175 -132 c-411 -308 -1013 -763 -1017 -767 -3 -2 63 -208
146 -458 250 -753 307 -928 303 -928 -5 0 -245 160 -582 388 -85 58 -268 182
-407 275 l-251 169 -158 -108 c-87 -60 -168 -116 -180 -124 -33 -22 -521 -364
-716 -501 -93 -65 -168 -115 -168 -111 0 4 29 97 65 207 36 110 111 340 167
510 55 171 125 384 154 474 30 90 54 169 54 177 0 7 -36 39 -79 71 -311 228
-446 327 -586 429 -88 64 -203 149 -255 188 -52 39 -117 86 -145 105 -27 19
-55 40 -61 45 -6 6 -34 27 -62 46 -28 19 -52 39 -52 43 0 5 15 8 33 7 17 -1
363 -1 767 -1 l735 1 29 93 c17 50 107 326 201 612 94 286 182 555 196 597 13
43 27 78 30 78 3 0 50 -120 104 -267z"/>
</g>
</svg>
